<svg width="88" height="24" viewBox="0 0 88 24" fill="none" xmlns="http://www.w3.org/2000/svg">
<g clip-path="url(#clip0_101_1036)">
<path d="M40.9549 12.6954C41.4937 11.7849 41.7727 10.7399 41.7608 9.67742C41.7642 8.93291 41.6294 8.19445 41.3634 7.50075C41.1074 6.82708 40.7207 6.21266 40.2263 5.69409C39.7193 5.16844 39.1157 4.74917 38.4497 4.46009C37.7166 4.14538 36.9272 3.98874 36.1315 4.00009H29.6392V19.7081H33.2152V15.3548H34.8927L37.63 19.7081H41.7857L38.695 14.7494C39.6351 14.3126 40.423 13.5965 40.9549 12.6954ZM37.9638 10.7101C37.8528 11.0269 37.6844 11.3197 37.4674 11.5734C37.2491 11.8244 36.9823 12.027 36.6837 12.1688C36.3661 12.32 36.0192 12.3965 35.6685 12.3928H33.2178V6.96209H35.6685C36.0192 6.95856 36.3662 7.03534 36.6837 7.18675C36.9823 7.32824 37.249 7.53065 37.4674 7.78142C37.6847 8.0362 37.8531 8.33018 37.9638 8.64809C38.2004 9.31598 38.2004 10.0469 37.9638 10.7148V10.7101Z" fill="black"/>
<path d="M50.7701 10.4407C50.6253 10.1853 50.447 9.95118 50.2402 9.74465C50.0136 9.51595 49.7575 9.3197 49.4788 9.16132C49.1825 8.99294 48.8674 8.86112 48.5404 8.76865C48.2102 8.67259 47.8686 8.62346 47.5252 8.62265C46.7997 8.6142 46.0809 8.76354 45.4168 9.06065C44.7945 9.33892 44.2348 9.74366 43.7721 10.25C43.3046 10.7703 42.9442 11.3805 42.7124 12.0447C42.2131 13.5054 42.2131 15.0946 42.7124 16.5553C42.9441 17.2197 43.3044 17.8302 43.7721 18.3507C44.235 18.8567 44.7947 19.2614 45.4168 19.54C46.0809 19.8369 46.7998 19.986 47.5252 19.9773C47.8686 19.9764 48.2101 19.9275 48.5404 19.832C48.8659 19.7396 49.1805 19.6115 49.4788 19.45C49.7566 19.2993 50.0127 19.1106 50.2402 18.8893C50.4525 18.6835 50.6314 18.4448 50.7701 18.182V19.708H54.1474V8.89199H50.7701V10.4407ZM50.5825 15.366C50.4655 15.6884 50.2895 15.9854 50.0638 16.2413C49.8397 16.4905 49.5696 16.6926 49.269 16.836C48.9424 16.9837 48.5889 17.06 48.2315 17.06C47.8741 17.06 47.5206 16.9837 47.194 16.836C46.8931 16.6929 46.623 16.4908 46.3992 16.2413C46.1731 15.9858 45.997 15.6887 45.8805 15.366C45.7545 15.025 45.691 14.6635 45.6929 14.2993C45.6879 13.5898 45.9392 12.903 46.3992 12.3693C46.6208 12.1144 46.8912 11.9082 47.194 11.7633C47.5206 11.6156 47.8741 11.5393 48.2315 11.5393C48.5889 11.5393 48.9424 11.6156 49.269 11.7633C49.5715 11.9085 49.8419 12.1147 50.0638 12.3693C50.5239 12.9032 50.7753 13.5902 50.7701 14.3C50.7717 14.6639 50.7081 15.0252 50.5825 15.366Z" fill="black"/>
<path d="M68.9527 17.1387C68.7595 17.1403 68.5668 17.1179 68.3789 17.072C68.2049 17.0284 68.0451 16.9395 67.9152 16.814C67.7676 16.6612 67.6612 16.4722 67.6063 16.2653C67.5325 16.0267 67.4955 15.7058 67.4955 15.3027V11.45H69.922V8.89202H67.4955V5.68335H64.1405V8.89202H60.3848V5.68335H57.0291V8.89202H55.3516V11.45H57.0291V16.0727C57.0291 16.9709 57.1506 17.6778 57.3937 18.1933C57.6368 18.7089 57.9459 19.0905 58.321 19.338C58.6903 19.5826 59.109 19.7398 59.546 19.798C59.9629 19.8557 60.3831 19.8856 60.8038 19.8874C61.304 19.8874 61.7412 19.8689 62.1154 19.832C62.4912 19.794 62.8033 19.7534 63.0538 19.708V17.0827C62.8652 17.1227 62.6727 17.1415 62.48 17.1387H61.8393C61.6461 17.1403 61.4534 17.1179 61.2655 17.072C61.0915 17.0284 60.9317 16.9395 60.8018 16.814C60.6544 16.661 60.5481 16.4721 60.493 16.2653C60.4195 16.0267 60.3828 15.7058 60.3828 15.3027V11.45H64.1385V16.0727C64.1385 16.9709 64.2601 17.6778 64.5031 18.1933C64.7462 18.7089 65.0551 19.0905 65.4298 19.338C65.7992 19.5824 66.2178 19.7396 66.6548 19.798C67.0719 19.8557 67.4923 19.8856 67.9133 19.8874C68.413 19.8874 68.8517 19.8687 69.2248 19.832C69.598 19.7954 69.9128 19.7534 70.1626 19.708V17.0827C69.974 17.1228 69.7815 17.1415 69.5888 17.1387H68.9527Z" fill="black"/>
<path d="M75.1371 4H71.7598V19.708H75.1371V4Z" fill="black"/>
<path d="M87.0843 11.6519C86.8279 11.056 86.452 10.5211 85.9806 10.0813C85.4771 9.61684 84.8932 9.25153 84.2585 9.00392C83.5887 8.73459 82.8345 8.60014 81.996 8.60059C81.0687 8.60059 80.2557 8.75014 79.5571 9.04925C78.8893 9.32545 78.2866 9.74212 77.7884 10.2719C77.3082 10.7912 76.9397 11.4065 76.7064 12.0786C76.4606 12.7922 76.3386 13.5438 76.3457 14.2999C76.3364 15.0831 76.4634 15.8617 76.7208 16.5999C76.9578 17.2752 77.3342 17.8912 77.8245 18.4066C78.3316 18.9296 78.9464 19.3319 79.6247 19.5846C80.3382 19.8615 81.1586 19.9999 82.0858 19.9999C82.7844 20.0095 83.4802 19.911 84.1496 19.7079C84.7191 19.5342 85.2561 19.2652 85.7386 18.9119C86.1704 18.5933 86.5378 18.1932 86.8207 17.7333C87.0886 17.2958 87.2651 16.807 87.3394 16.2973H84.0283C83.9074 16.6453 83.6887 16.9496 83.3994 17.1726C83.0973 17.4121 82.652 17.5317 82.0635 17.5313C81.622 17.5313 81.2541 17.4677 80.9598 17.3406C80.6845 17.2276 80.4389 17.0509 80.2424 16.8246C80.0559 16.6035 79.9202 16.343 79.845 16.0619C79.762 15.7574 79.7138 15.4443 79.7014 15.1286H87.363C87.4174 14.8399 87.4507 14.5476 87.4627 14.2539C87.4697 13.9993 87.4734 13.7599 87.4738 13.5359C87.4743 12.8872 87.3417 12.2455 87.0843 11.6519ZM79.7001 13.1553C79.7001 12.4224 79.9136 11.8615 80.3408 11.4726C80.7679 11.0837 81.3122 10.8893 81.9737 10.8893C82.6212 10.8893 83.1473 11.091 83.5522 11.4946C83.957 11.8981 84.1595 12.4517 84.1595 13.1553H79.7001Z" fill="black"/>
<path d="M12.2749 23.7006C18.6316 23.7006 23.7847 18.4621 23.7847 12C23.7847 5.53788 18.6316 0.299316 12.2749 0.299316C5.91825 0.299316 0.765137 5.53788 0.765137 12C0.765137 18.4621 5.91825 23.7006 12.2749 23.7006Z" fill="#FF8000"/>
<path d="M21.367 12.6201C21.451 10.2041 20.908 8.81141 20.3178 8.01541C19.8344 7.36608 19.0783 6.96541 17.6041 6.98074L13.7552 7.07008L12.5748 5.97741C12.2187 5.64705 11.7945 5.40165 11.3332 5.2591C10.8719 5.11655 10.3851 5.08044 9.90837 5.15341C2.68219 6.26141 2.9491 14.4001 2.9491 14.4001C2.9491 14.4001 2.14838 14.4001 1.07812 14.8387C1.88016 17.1334 2.61727 19.8554 7.42226 22.6741C7.50554 22.2467 8.56399 19.1567 8.56399 19.1567C8.56399 19.1567 9.61916 15.9614 12.079 17.1054C14.1474 18.0674 16.3607 18.0474 17.2441 17.9987C17.8463 17.9655 18.42 17.7274 18.873 17.3227C19.4661 16.799 19.9725 16.1818 20.3728 15.4947C20.3728 15.4947 14.8911 14.3887 12.3171 11.6554C14.8327 13.8761 21.367 12.6201 21.367 12.6201Z" fill="#00CE84"/>
<path d="M19.469 9.85331C19.7156 9.73464 19.5425 8.83464 19.4264 8.58664C19.4002 8.52461 19.362 8.46857 19.314 8.42187C19.2661 8.37518 19.2094 8.33878 19.1473 8.31486C19.0852 8.29093 19.019 8.27996 18.9526 8.28261C18.8862 8.28526 18.8211 8.30147 18.761 8.33028C18.701 8.35908 18.6472 8.39988 18.603 8.45026C18.5588 8.50063 18.5251 8.55955 18.5037 8.62348C18.4824 8.68741 18.474 8.75506 18.4789 8.82238C18.4839 8.8897 18.5021 8.95531 18.5325 9.01531C18.6486 9.26664 19.2218 9.97198 19.469 9.85331Z" fill="black"/>
<path d="M11.8577 7.85137C11.836 7.1267 11.4465 6.5507 10.9868 6.5647C10.5271 6.5787 10.1723 7.17737 10.1933 7.90204C10.2143 8.6267 10.6051 9.2027 11.0642 9.1887C11.5232 9.1747 11.8813 8.57604 11.8577 7.85137Z" fill="black"/>
<path d="M11.3431 7.83565C11.4633 7.83199 11.5558 7.66254 11.5497 7.45718C11.5437 7.25182 11.4413 7.08832 11.3211 7.09199C11.201 7.09566 11.1084 7.26511 11.1145 7.47047C11.1206 7.67582 11.2229 7.83932 11.3431 7.83565Z" fill="white"/>
<path d="M12.275 0C5.76622 0 0.470703 5.38333 0.470703 12C0.470703 18.6167 5.76622 24 12.275 24C18.7837 24 24.0792 18.6167 24.0792 12C24.0792 5.38333 18.7837 0 12.275 0ZM1.54227 15.3067C2.14707 16.0407 2.67745 16.835 3.12535 17.6773C3.20404 17.826 3.40472 17.834 3.42046 17.6833C3.51948 16.5859 3.45938 15.4797 3.24208 14.4C3.24208 14.396 3.24208 14.3927 3.24208 14.3887C3.24244 13.6936 3.30721 13.0001 3.43554 12.3173C4.10879 12.3483 4.77636 12.4575 5.42521 12.6427C5.45583 12.6521 5.48868 12.651 5.51855 12.6393C5.54842 12.6276 5.5736 12.6061 5.5901 12.5783C5.6066 12.5504 5.61347 12.5177 5.60961 12.4854C5.60576 12.4531 5.59141 12.4231 5.56883 12.4C5.01757 11.8699 4.40467 11.4103 3.74376 11.0313C3.81787 10.786 3.90181 10.536 3.99952 10.284C4.11166 9.99467 4.23626 9.72067 4.36873 9.456C5.0989 9.70673 5.79446 10.0515 6.43841 10.482C6.46286 10.499 6.49196 10.5078 6.52159 10.5071C6.55123 10.5064 6.57988 10.4961 6.60348 10.4779C6.62708 10.4597 6.64442 10.4344 6.65305 10.4055C6.66168 10.3767 6.66115 10.3458 6.65154 10.3173C6.34466 9.45462 5.91897 8.64051 5.38718 7.89933C5.68263 7.54706 6.01218 7.22589 6.37087 6.94067C7.05326 7.25032 7.6932 7.64877 8.27463 8.126C8.29528 8.14266 8.32039 8.1526 8.34668 8.15454C8.37297 8.15647 8.39923 8.15031 8.42202 8.13685C8.44482 8.12339 8.46309 8.10327 8.47447 8.07909C8.48585 8.05492 8.48979 8.02782 8.48579 8.00133C8.34939 7.32768 8.14479 6.67018 7.87525 6.03933C8.53914 5.75301 9.23651 5.55471 9.95018 5.44933C10.384 5.3818 10.8271 5.41401 11.247 5.54357C11.6669 5.67313 12.0529 5.89676 12.3766 6.198L13.557 7.29133C13.6127 7.34329 13.6861 7.37125 13.7616 7.36933L17.6066 7.28C19.185 7.26333 19.7589 7.76067 20.0828 8.196C20.7675 9.11533 21.1104 10.554 21.0796 12.3667C19.9143 12.558 14.704 13.2887 12.5543 11.4667C12.6856 11.1209 12.7374 10.7492 12.7058 10.38C12.6951 10.3022 12.6546 10.2318 12.5933 10.1841C12.5319 10.1363 12.4545 10.115 12.3778 10.1247C12.3011 10.1344 12.2313 10.1744 12.1833 10.236C12.1354 10.2976 12.1132 10.3759 12.1215 10.454C12.1268 10.4993 12.2376 11.564 11.2467 12.0973C11.2125 12.1157 11.1822 12.1408 11.1575 12.1711C11.1329 12.2013 11.1143 12.2363 11.1029 12.2738C11.0915 12.3114 11.0875 12.3509 11.0912 12.3901C11.0948 12.4292 11.106 12.4672 11.124 12.502C11.1421 12.5368 11.1668 12.5676 11.1966 12.5926C11.2264 12.6177 11.2607 12.6366 11.2977 12.6481C11.3346 12.6597 11.3735 12.6638 11.412 12.6601C11.4505 12.6564 11.4879 12.6451 11.5221 12.6267C11.8054 12.4774 12.0539 12.268 12.2507 12.0127C14.5073 14.27 18.5837 15.384 19.8999 15.696C19.5501 16.2118 19.1393 16.682 18.6768 17.096C18.273 17.4551 17.7625 17.6664 17.2268 17.696C16.3914 17.742 14.2804 17.544 12.172 16.818C11.3614 16.5393 10.6722 16.5393 10.063 16.818C9.45374 17.0967 8.94813 17.6533 8.53236 18.4953C8.52777 18.5047 8.51071 18.5407 8.48448 18.5973C8.47333 18.62 8.46284 18.6433 8.45235 18.664C7.93729 19.7877 7.51057 20.9511 7.17618 22.1433C5.83502 21.4448 4.64537 20.4798 3.67764 19.3055C2.70992 18.1311 1.9838 16.7714 1.54227 15.3067ZM12.275 23.4C10.7035 23.4008 9.14962 23.0639 7.71524 22.4113C8.01962 21.3065 8.40545 20.2266 8.86943 19.1807C8.88583 19.14 8.90419 19.0987 8.9219 19.0573C9.00387 18.8747 9.05305 18.766 9.05765 18.762C9.55736 17.7273 10.3692 16.8287 11.9851 17.3893C14.1879 18.148 16.3468 18.348 17.2603 18.298C17.9283 18.2606 18.5647 17.9965 19.0677 17.548C19.6874 17.0013 20.2158 16.356 20.6324 15.6373C20.6539 15.5965 20.6658 15.5512 20.6671 15.5049C20.6683 15.4586 20.6589 15.4126 20.6396 15.3707C20.6385 15.3685 20.6372 15.3665 20.6357 15.3647V15.3607L20.4258 14.9987C20.2584 14.7093 20.2108 14.3642 20.2936 14.0391C20.3763 13.7141 20.5826 13.4358 20.8671 13.2653L21.4528 12.914V12.9053C21.5094 12.8872 21.5592 12.8519 21.5956 12.8043C21.632 12.7567 21.6534 12.6989 21.6567 12.6387C21.7295 10.5427 21.3564 8.92867 20.5471 7.84267C19.9477 7.022 19.0362 6.66667 17.5961 6.68133L13.8659 6.768L12.7747 5.756C12.3865 5.39452 11.9236 5.12619 11.4199 4.97077C10.9162 4.81536 10.3846 4.77682 9.86427 4.858C5.9951 5.45133 4.23626 8.02733 3.44472 10.084C2.95855 11.3737 2.69134 12.738 2.65449 14.1187C2.20398 14.2031 1.76128 14.3259 1.3311 14.486C1.15162 13.6699 1.06101 12.8362 1.06092 12C1.06092 5.71333 6.09084 0.6 12.275 0.6C18.4591 0.6 23.489 5.71333 23.489 12C23.489 18.2867 18.4591 23.4 12.275 23.4Z" fill="black"/>
<path d="M14.3735 12.814L14.4811 13.1213C14.5558 13.334 14.7591 13.396 14.9355 13.2586L15.2733 12.996C14.9699 12.9544 14.6694 12.8936 14.3735 12.814Z" fill="white"/>
<path d="M18.7852 13.2553L19.0685 13.552C19.1532 13.6392 19.2684 13.6891 19.389 13.6907C19.5097 13.6923 19.6261 13.6456 19.7131 13.5606L20.0476 13.2273C19.6685 13.246 19.2416 13.256 18.7852 13.2553Z" fill="white"/>
<path d="M16.9795 13.7047L16.2397 14.0141C16.8811 14.2547 17.512 14.4614 18.0996 14.6361L17.8759 14.0841C17.8417 13.9993 17.7913 13.9222 17.7276 13.8572C17.664 13.7922 17.5884 13.7406 17.5051 13.7054C17.4218 13.6702 17.3325 13.652 17.2424 13.6519C17.1522 13.6517 17.0628 13.6697 16.9795 13.7047Z" fill="white"/>
</g>
<defs>
<clipPath id="clip0_101_1036">
<rect width="87" height="24" fill="white" transform="translate(0.470703)"/>
</clipPath>
</defs>
</svg>
